<?xml version="1.0" encoding="utf-8"?>
<svg viewBox="202.463 128.504 58.725 180.178" xmlns="http://www.w3.org/2000/svg">
  <path d="M 210.338 276.65 Q 210.263 273.875 210.225 271.85 Q 210.188 269.825 210.15 268.138 Q 210.113 266.45 210.113 264.538 Q 210.113 262.625 210.113 260.075 Q 210.113 257.525 210.188 253.775 Q 210.413 244.025 212.588 237.388 Q 214.763 230.75 218.625 226.175 Q 222.488 221.6 227.663 218.15 L 235.088 212.975 Q 239.738 209.375 241.088 205.138 Q 242.438 200.9 242.663 196.625 Q 242.963 191.375 242.963 186.125 Q 242.963 180.875 242.663 175.625 Q 242.438 170.9 240.075 168.65 Q 237.713 166.4 232.538 166.4 Q 227.738 166.4 225.525 168.65 Q 223.313 170.9 223.163 175.625 Q 223.013 181.475 223.013 187.363 Q 223.013 193.25 223.238 199.1 L 210.338 199.1 Q 210.188 195.35 210.113 191.563 Q 210.038 187.775 210 184.213 Q 209.963 180.65 210.038 177.8 Q 210.563 165.875 215.813 160.7 Q 221.063 155.525 232.688 155.525 Q 240.938 155.525 245.85 157.738 Q 250.763 159.95 253.088 164.863 Q 255.413 169.775 255.788 177.65 Q 255.863 179.75 255.938 182.225 Q 256.013 184.7 256.013 187.288 Q 256.013 189.875 255.975 192.275 Q 255.938 194.675 255.863 196.55 Q 255.563 203.675 253.688 208.738 Q 251.813 213.8 248.325 217.663 Q 244.838 221.525 239.663 225.125 L 231.638 230.525 Q 228.713 232.7 226.913 236.413 Q 225.113 240.125 224.288 244.588 Q 223.463 249.05 223.463 253.775 L 223.463 264.95 L 255.188 264.95 L 255.188 276.65 Z" style="fill: rgb(51, 51, 51); white-space: pre;"/>
</svg>