<?xml version="1.0" encoding="utf-8"?>
<svg viewBox="202.463 128.504 60.539 180.178" xmlns="http://www.w3.org/2000/svg">
  <path d="M 231.863 277.775 Q 219.638 277.775 214.125 272.562 Q 208.613 267.35 208.238 255.425 Q 208.163 252.2 208.125 249.312 Q 208.088 246.425 208.125 243.162 Q 208.163 239.9 208.238 235.625 L 221.363 235.625 L 221.363 257 Q 221.363 262.025 223.875 264.425 Q 226.388 266.825 231.488 266.825 Q 236.588 266.825 238.988 264.425 Q 241.388 262.025 241.463 257 Q 241.688 250.55 241.688 243.537 Q 241.688 236.525 241.463 230.375 Q 241.238 224.9 238.838 221.937 Q 236.438 218.975 229.913 219.05 L 220.313 219.125 L 219.863 208.025 L 239.738 168.35 L 208.688 168.35 L 208.688 156.65 L 254.813 156.65 L 254.663 167.675 L 234.188 207.575 Q 244.688 208.175 249.413 213.462 Q 254.138 218.75 254.513 230.225 Q 254.663 234.2 254.738 237.762 Q 254.813 241.325 254.813 244.4 Q 254.813 247.475 254.738 250.212 Q 254.663 252.95 254.513 255.425 Q 254.063 267.35 248.775 272.562 Q 243.488 277.775 231.863 277.775 Z" style="fill: rgb(51, 51, 51); white-space: pre;"/>
</svg>