<?xml version="1.0" encoding="utf-8"?>
<svg viewBox="202.463 128.504 61.728 180.178" xmlns="http://www.w3.org/2000/svg">
  <path d="M 233.588 277.775 Q 221.363 277.775 215.85 272.562 Q 210.338 267.35 210.038 255.425 Q 209.813 250.025 209.813 245.3 Q 209.813 240.575 210.038 235.625 L 223.163 235.625 Q 222.938 238.925 222.9 242.712 Q 222.863 246.5 222.9 250.175 Q 222.938 253.85 223.088 257 Q 223.463 262.025 225.788 264.425 Q 228.113 266.825 233.213 266.825 Q 238.238 266.825 240.563 264.425 Q 242.888 262.025 243.188 257 Q 243.713 248.15 243.75 239.975 Q 243.788 231.8 243.338 223.025 Q 243.113 218.3 240.938 216.05 Q 238.763 213.8 234.263 213.8 Q 231.038 213.8 228.788 214.962 Q 226.538 216.125 225.263 218.225 Q 223.988 220.325 223.913 223.25 L 211.388 223.25 L 211.388 156.65 L 255.338 156.65 L 255.338 168.35 L 224.513 168.35 L 224.513 209.6 L 227.063 209.6 Q 228.563 206.75 231.9 204.725 Q 235.238 202.7 239.813 202.7 Q 247.988 202.7 252 207.912 Q 256.013 213.125 256.463 222.8 Q 256.688 228.8 256.725 234.275 Q 256.763 239.75 256.65 245 Q 256.538 250.25 256.313 255.425 Q 255.638 263.375 253.275 268.325 Q 250.913 273.275 246.15 275.525 Q 241.388 277.775 233.588 277.775 Z" style="fill: rgb(51, 51, 51); white-space: pre;"/>
</svg>