<?xml version="1.0" encoding="utf-8"?>
<svg viewBox="202.463 128.504 59.934 180.178" xmlns="http://www.w3.org/2000/svg">
  <path d="M 232.538 277.85 Q 220.688 277.85 215.513 272.675 Q 210.338 267.5 210.188 255.5 Q 210.038 244.925 209.963 234.575 Q 209.888 224.225 209.888 214.325 Q 209.888 204.425 209.925 195.2 Q 209.963 185.975 210.188 177.8 Q 210.563 166.325 216.225 160.963 Q 221.888 155.6 232.388 155.6 Q 243.413 155.6 249.075 161.113 Q 254.738 166.625 255.188 177.8 Q 255.188 179.9 255.188 183.088 Q 255.188 186.275 255.15 189.463 Q 255.113 192.65 255.038 194.9 L 242.063 194.9 Q 242.213 191.75 242.25 188.825 Q 242.288 185.9 242.25 182.675 Q 242.213 179.45 242.063 175.625 Q 241.913 171.05 239.7 168.763 Q 237.488 166.475 232.538 166.475 Q 227.963 166.475 225.675 168.688 Q 223.388 170.9 223.238 175.625 Q 223.013 183.65 222.9 192.35 Q 222.788 201.05 222.788 210.65 L 225.638 210.65 Q 227.138 207.725 230.813 205.775 Q 234.488 203.825 239.063 203.825 Q 248.363 203.825 251.963 208.475 Q 255.563 213.125 255.788 223.85 Q 256.013 229.625 256.05 234.875 Q 256.088 240.125 256.013 245.188 Q 255.938 250.25 255.788 255.5 Q 255.263 267.5 249.938 272.675 Q 244.613 277.85 232.538 277.85 Z M 232.613 266.975 Q 237.638 266.975 240.113 264.688 Q 242.588 262.4 242.663 257.675 Q 242.813 253.1 242.85 248.788 Q 242.888 244.475 242.888 240.35 Q 242.888 236.225 242.85 232.213 Q 242.813 228.2 242.738 224.15 Q 242.663 219.35 240.375 217.1 Q 238.088 214.85 233.663 214.85 Q 228.938 214.85 225.975 217.175 Q 223.013 219.5 222.788 223.85 Q 222.863 231.65 222.938 240.05 Q 223.013 248.45 223.238 257.675 Q 223.388 262.4 225.675 264.688 Q 227.963 266.975 232.613 266.975 Z" style="fill: rgb(51, 51, 51); white-space: pre;"/>
</svg>