<?xml version="1.0" encoding="utf-8"?>
<svg viewBox="202.463 128.504 59.851 180.178" xmlns="http://www.w3.org/2000/svg">
  <path d="M 232.313 277.775 Q 220.763 277.775 215.475 272.563 Q 210.188 267.35 209.663 255.425 Q 209.513 252.425 209.475 249.088 Q 209.438 245.75 209.55 241.7 Q 209.663 237.65 209.813 232.625 Q 210.338 225.8 212.7 221.9 Q 215.063 218 219.938 215.975 L 219.938 213.5 Q 216.113 212.075 213.713 208.85 Q 211.313 205.625 210.563 200.225 Q 210.338 196.25 210.15 192.238 Q 209.963 188.225 209.963 184.588 Q 209.963 180.95 210.038 177.8 Q 210.563 165.875 215.738 160.7 Q 220.913 155.525 232.313 155.525 Q 243.788 155.525 248.925 160.7 Q 254.063 165.875 254.663 177.8 Q 254.813 180.95 254.775 184.588 Q 254.738 188.225 254.588 192.238 Q 254.438 196.25 254.063 200.225 Q 253.388 205.625 250.988 208.85 Q 248.588 212.075 244.838 213.425 L 244.838 215.975 Q 249.263 218.15 251.775 222.013 Q 254.288 225.875 254.888 232.625 Q 255.263 240.2 255.263 245.563 Q 255.263 250.925 255.038 255.425 Q 254.513 267.35 249.225 272.563 Q 243.938 277.775 232.313 277.775 Z M 232.313 266.825 Q 237.338 266.825 239.625 264.425 Q 241.913 262.025 241.913 257 Q 242.063 252.5 242.1 248.338 Q 242.138 244.175 242.1 239.975 Q 242.063 235.775 241.913 231.35 Q 241.838 226.1 239.55 223.588 Q 237.263 221.075 232.313 221.075 Q 227.438 221.075 225.15 223.588 Q 222.863 226.1 222.713 231.35 Q 222.638 238.025 222.638 244.175 Q 222.638 250.325 222.713 257 Q 222.863 262.025 225.15 264.425 Q 227.438 266.825 232.313 266.825 Z M 232.313 208.55 Q 237.263 208.55 239.588 206.075 Q 241.913 203.6 241.913 198.35 Q 242.063 192.5 242.1 187.25 Q 242.138 182 241.913 176.3 Q 241.838 171.2 239.588 168.8 Q 237.338 166.4 232.313 166.4 Q 227.438 166.4 225.15 168.8 Q 222.863 171.2 222.713 176.3 Q 222.713 179.15 222.675 181.888 Q 222.638 184.625 222.638 187.325 Q 222.638 190.025 222.675 192.725 Q 222.713 195.425 222.713 198.35 Q 222.863 203.6 225.15 206.075 Q 227.438 208.55 232.313 208.55 Z" style="fill: rgb(51, 51, 51); white-space: pre;"/>
</svg>