<?xml version="1.0" encoding="utf-8"?>
<svg viewBox="202.463 128.504 59.851 180.178" xmlns="http://www.w3.org/2000/svg">
  <path d="M 232.613 277.85 Q 220.838 277.85 215.588 272.675 Q 210.338 267.5 210.263 255.575 Q 210.263 253.475 210.225 250.325 Q 210.188 247.175 210.225 243.988 Q 210.263 240.8 210.338 238.475 L 223.388 238.475 Q 223.313 243.2 223.275 247.888 Q 223.238 252.575 223.388 257.75 Q 223.538 262.325 225.525 264.65 Q 227.513 266.975 232.463 266.975 Q 237.113 266.975 239.175 264.688 Q 241.238 262.4 241.388 257.75 Q 241.613 250.25 241.763 241.55 Q 241.913 232.85 241.988 223.475 L 239.588 223.475 Q 238.088 226.4 234.75 228.388 Q 231.413 230.375 226.763 230.375 Q 221.663 230.375 217.65 228.275 Q 213.638 226.175 211.275 221.563 Q 208.913 216.95 208.838 209.6 Q 208.763 206.3 208.763 202.213 Q 208.763 198.125 208.763 193.813 Q 208.763 189.5 208.8 185.338 Q 208.838 181.175 208.913 177.95 Q 209.213 165.95 214.688 160.775 Q 220.163 155.6 232.088 155.6 Q 244.013 155.6 249.15 160.775 Q 254.288 165.95 254.513 177.95 Q 254.738 191.45 254.813 204.5 Q 254.888 217.55 254.813 230.263 Q 254.738 242.975 254.513 255.575 Q 254.288 267.5 249.113 272.675 Q 243.938 277.85 232.613 277.85 Z M 231.413 219.275 Q 235.988 219.275 238.763 217.138 Q 241.538 215 241.988 211.1 Q 241.913 202.325 241.725 193.475 Q 241.538 184.625 241.388 175.775 Q 241.313 170.975 238.988 168.725 Q 236.663 166.475 232.013 166.475 Q 227.063 166.475 224.55 168.725 Q 222.038 170.975 221.963 175.775 Q 221.963 179.225 221.925 183.613 Q 221.888 188 221.888 192.688 Q 221.888 197.375 221.85 201.875 Q 221.813 206.375 221.888 210.05 Q 222.038 214.775 224.55 217.025 Q 227.063 219.275 231.413 219.275 Z" style="fill: rgb(51, 51, 51); white-space: pre;"/>
</svg>