<?xml version="1.0" encoding="utf-8"?>
<svg viewBox="202.463 128.504 54.116 180.178" xmlns="http://www.w3.org/2000/svg">
  <path d="M 252.788 291.875 Q 243.488 292.55 238.5 289.212 Q 233.513 285.875 232.013 277.775 Q 220.013 277.775 214.763 272.637 Q 209.513 267.5 209.288 255.65 Q 209.138 245.75 209.025 236.037 Q 208.913 226.325 208.913 216.65 Q 208.913 206.975 209.025 197.262 Q 209.138 187.55 209.288 177.65 Q 209.513 165.725 214.8 160.625 Q 220.088 155.525 232.013 155.525 Q 244.013 155.525 249.225 160.625 Q 254.438 165.725 254.738 177.65 Q 254.888 187.55 255.038 197.3 Q 255.188 207.05 255.188 216.725 Q 255.188 226.4 255.038 236.075 Q 254.888 245.75 254.738 255.65 Q 254.588 263.675 252.075 268.437 Q 249.563 273.2 244.163 275.375 Q 244.838 278.825 246.938 280.212 Q 249.038 281.6 252.788 281.225 Z M 232.013 266.825 Q 237.038 266.825 239.288 264.725 Q 241.538 262.625 241.613 257.825 Q 241.913 247.625 242.063 237.237 Q 242.213 226.85 242.213 216.387 Q 242.213 205.925 242.063 195.65 Q 241.913 185.375 241.613 175.475 Q 241.538 170.675 239.288 168.537 Q 237.038 166.4 232.013 166.4 Q 227.138 166.4 224.85 168.537 Q 222.563 170.675 222.413 175.475 Q 222.113 185.375 221.963 195.65 Q 221.813 205.925 221.813 216.387 Q 221.813 226.85 222 237.237 Q 222.188 247.625 222.413 257.825 Q 222.563 262.625 224.85 264.725 Q 227.138 266.825 232.013 266.825 Z" style="fill: rgb(51, 51, 51); white-space: pre;"/>
</svg>