<?xml version="1.0" encoding="utf-8"?>
<svg viewBox="202.463 128.504 83.687 180.178" xmlns="http://www.w3.org/2000/svg">
  <path d="M 214.613 276.65 L 214.613 169.85 L 208.838 169.85 L 208.388 164.75 L 217.238 156.65 L 227.738 156.65 L 227.738 276.65 Z" style="fill: rgb(51, 51, 51); white-space: pre;"/>
  <path d="M 260.606 277.775 Q 249.731 277.775 243.881 272.037 Q 238.031 266.3 237.881 255.65 Q 237.656 243.05 237.581 229.85 Q 237.506 216.65 237.581 203.412 Q 237.656 190.175 237.881 177.65 Q 238.031 166.85 243.881 161.187 Q 249.731 155.525 260.606 155.525 Q 271.331 155.525 277.181 161.187 Q 283.031 166.85 283.256 177.65 Q 283.481 187.025 283.593 196.887 Q 283.706 206.75 283.706 216.687 Q 283.706 226.625 283.593 236.45 Q 283.481 246.275 283.256 255.65 Q 283.031 266.3 277.181 272.037 Q 271.331 277.775 260.606 277.775 Z M 260.606 266.825 Q 269.831 266.825 270.131 257.825 Q 270.506 243.2 270.656 228.762 Q 270.806 214.325 270.656 200.825 Q 270.506 187.325 270.131 175.475 Q 269.906 166.4 260.606 166.4 Q 251.156 166.4 250.931 175.475 Q 250.706 186.2 250.593 196.962 Q 250.481 207.725 250.481 218.262 Q 250.481 228.8 250.593 238.737 Q 250.706 248.675 250.931 257.825 Q 251.156 266.825 260.606 266.825 Z" style="fill: rgb(51, 51, 51); white-space: pre;"/>
</svg>