<?xml version="1.0" encoding="utf-8"?>
<svg viewBox="0 0 500 500" xmlns="http://www.w3.org/2000/svg">
  <path d="M 78.799 457.726 L 78.799 136.922 L 8.493 167.052 L 8.493 99.701 L 100.658 51.256 L 154.421 51.256 L 154.421 457.726 Z" style="fill: rgb(51, 51, 51); white-space: pre;"/>
  <path d="M 348.871 462.452 Q 282.701 462.452 254.343 445.024 Q 225.984 427.595 218.304 387.421 Q 210.624 347.246 210.624 254.491 Q 210.624 161.735 218.304 121.561 Q 225.984 81.386 254.343 63.958 Q 282.701 46.529 348.871 46.529 Q 415.631 46.529 443.99 63.958 Q 472.348 81.386 479.733 121.265 Q 487.118 161.144 487.118 254.491 Q 487.118 347.837 479.733 387.716 Q 472.348 427.595 443.99 445.024 Q 415.631 462.452 348.871 462.452 Z M 348.871 397.464 Q 382.546 397.464 394.067 390.375 Q 405.588 383.285 408.837 356.995 Q 412.086 330.704 412.086 254.491 Q 412.086 178.278 408.837 151.987 Q 405.588 125.696 394.067 118.607 Q 382.546 111.517 348.871 111.517 Q 315.786 111.517 303.97 118.607 Q 292.154 125.696 288.905 152.282 Q 285.655 178.868 285.655 254.491 Q 285.655 330.113 288.905 356.699 Q 292.154 383.285 303.97 390.375 Q 315.786 397.464 348.871 397.464 Z" style="fill: rgb(51, 51, 51); white-space: pre;"/>
</svg>