<?xml version="1.0" encoding="utf-8"?>
<svg viewBox="0 0 500 500" xmlns="http://www.w3.org/2000/svg">
  <path d="M 194.518 390.33 L 375.303 390.33 L 375.303 455.909 L 120.668 455.909 L 120.668 403.919 Q 120.668 351.337 124.213 325.933 Q 127.758 300.529 139.869 284.282 Q 151.98 268.035 179.748 255.628 L 228.784 232.587 Q 240.01 227.86 262.46 217.226 Q 279.002 209.545 286.683 203.047 Q 294.363 196.548 297.022 187.095 Q 299.68 177.642 299.68 160.509 Q 299.68 136.877 293.182 126.538 Q 286.683 116.199 272.208 112.95 Q 257.734 109.7 226.421 109.7 Q 189.201 109.7 127.167 116.79 L 127.167 56.528 Q 150.799 51.211 185.065 47.962 Q 219.332 44.712 248.872 44.712 Q 289.637 44.712 316.223 52.097 Q 342.809 59.482 359.056 83.705 Q 375.303 107.928 375.303 155.192 Q 375.303 190.64 368.804 212.204 Q 362.305 233.768 349.308 247.061 Q 336.31 260.354 313.86 269.807 L 222.286 311.754 Q 213.424 315.889 208.697 319.139 Q 203.971 322.388 201.017 327.115 Q 197.472 333.613 195.995 343.952 Q 194.518 354.291 194.518 374.379 Z" style="fill: rgb(51, 51, 51); white-space: pre;"/>
</svg>