<?xml version="1.0" encoding="utf-8"?>
<svg viewBox="0 0 500 500" xmlns="http://www.w3.org/2000/svg">
  <path d="M 238.176 459.313 Q 212.771 459.313 180.868 456.064 Q 148.965 452.815 125.333 448.088 L 125.333 388.417 Q 183.231 394.325 227.541 394.325 Q 258.263 394.325 273.328 391.076 Q 288.394 387.827 295.779 376.306 Q 303.164 364.785 303.164 339.381 Q 303.164 315.749 297.847 303.342 Q 292.529 290.935 280.418 286.209 Q 268.307 281.483 246.447 281.483 L 182.641 281.483 L 182.641 216.495 L 246.447 216.495 Q 265.353 216.495 276.578 212.654 Q 287.803 208.814 293.711 196.998 Q 299.619 185.182 299.619 162.732 Q 299.619 137.327 292.825 126.102 Q 286.031 114.877 270.965 111.628 Q 255.9 108.378 222.815 108.378 Q 177.914 108.378 127.105 114.877 L 127.105 54.615 Q 149.556 49.889 181.164 46.64 Q 212.771 43.39 238.767 43.39 Q 289.575 43.39 319.411 54.615 Q 349.246 65.841 362.244 88.882 Q 375.241 111.923 375.241 149.734 Q 375.241 193.453 360.176 215.904 Q 345.111 238.354 313.798 246.035 L 313.798 248.398 Q 347.474 256.078 363.425 277.642 Q 379.377 299.207 379.377 346.471 Q 379.377 384.873 367.266 409.095 Q 355.154 433.318 324.137 446.316 Q 293.12 459.313 238.176 459.313 Z" style="fill: rgb(51, 51, 51); white-space: pre;"/>
</svg>