<?xml version="1.0" encoding="utf-8"?>
<svg viewBox="0 0 500 500" xmlns="http://www.w3.org/2000/svg">
  <path d="M 126.437 392.382 Q 184.335 398.29 226.873 398.29 Q 259.367 398.29 275.614 392.973 Q 291.861 387.656 297.769 374.363 Q 303.677 361.07 303.677 334.484 Q 303.677 306.126 296.882 293.128 Q 290.088 280.13 273.841 275.995 Q 257.594 271.859 223.328 271.859 Q 183.153 271.859 129.981 278.358 L 129.981 52.082 L 355.667 52.082 L 355.667 117.66 L 199.105 117.66 L 199.105 211.598 Q 211.512 209.825 231.304 208.348 Q 251.095 206.871 264.684 206.871 Q 310.766 206.871 335.875 220.755 Q 360.984 234.639 370.437 260.634 Q 379.89 286.629 379.89 327.394 Q 379.89 377.612 368.369 406.562 Q 356.849 435.511 326.422 449.395 Q 295.996 463.278 239.279 463.278 Q 213.875 463.278 181.972 460.029 Q 150.069 456.78 126.437 452.053 L 126.437 392.382 Z" style="fill: rgb(51, 51, 51); white-space: pre;"/>
</svg>