<?xml version="1.0" encoding="utf-8"?>
<svg viewBox="0 0 500 500" xmlns="http://www.w3.org/2000/svg">
  <path d="M 254.111 464.599 Q 212.755 464.599 188.237 459.578 Q 163.718 454.556 148.062 439.786 Q 132.406 425.016 123.544 396.067 Q 110.546 356.483 110.546 259.001 Q 110.546 211.146 113.796 177.766 Q 117.045 144.386 124.726 121.935 Q 138.314 81.17 169.331 64.923 Q 200.348 48.676 261.2 48.676 Q 283.651 48.676 314.372 52.221 Q 345.094 55.766 370.498 61.083 L 370.498 121.345 Q 315.554 113.664 275.97 113.664 Q 234.024 113.664 216.004 122.526 Q 197.985 131.388 192.372 155.611 Q 186.76 179.834 186.76 236.551 L 190.895 236.551 Q 211.573 208.192 275.38 208.192 Q 316.736 208.192 340.663 217.054 Q 364.59 225.916 376.702 251.321 Q 388.813 276.725 388.813 326.352 Q 388.813 381.297 377.883 410.246 Q 366.954 439.195 338.595 451.897 Q 310.237 464.599 254.111 464.599 Z M 250.566 399.611 Q 279.515 399.611 291.922 396.067 Q 304.329 392.522 309.351 379.82 Q 314.372 367.117 314.372 337.577 Q 314.372 306.265 309.646 293.267 Q 304.92 280.27 292.217 276.43 Q 279.515 272.589 250.566 272.589 Q 222.208 272.589 209.21 277.316 Q 196.212 282.042 192.372 292.972 Q 188.532 303.902 188.532 327.534 Q 188.532 361.8 193.849 376.57 Q 199.166 391.34 211.278 395.476 Q 223.389 399.611 250.566 399.611 Z" style="fill: rgb(51, 51, 51); white-space: pre;"/>
</svg>