<?xml version="1.0" encoding="utf-8"?>
<svg viewBox="0 0 500 500" xmlns="http://www.w3.org/2000/svg">
  <path d="M 247.643 463.278 Q 191.517 463.278 160.5 450.872 Q 129.483 438.465 117.372 414.242 Q 105.26 390.019 105.26 350.436 Q 105.26 316.76 112.35 297.264 Q 119.44 277.767 133.323 268.019 Q 147.207 258.271 170.248 252.363 L 170.248 250 Q 138.345 242.319 123.28 219.869 Q 108.214 197.418 108.214 153.699 Q 108.214 115.888 121.507 92.847 Q 134.8 69.806 164.931 58.58 Q 195.062 47.355 247.643 47.355 Q 300.224 47.355 330.651 58.58 Q 361.077 69.806 374.074 92.847 Q 387.072 115.888 387.072 153.699 Q 387.072 197.418 372.302 219.869 Q 357.532 242.319 325.038 250 L 325.038 252.363 Q 348.079 258.271 362.258 268.019 Q 376.438 277.767 383.527 297.264 Q 390.617 316.76 390.617 350.436 Q 390.617 390.019 378.505 414.242 Q 366.394 438.465 335.082 450.872 Q 303.769 463.278 247.643 463.278 Z M 247.643 222.232 Q 275.411 222.232 288.408 218.096 Q 301.406 213.961 306.428 202.44 Q 311.45 190.92 311.45 166.697 Q 311.45 141.883 306.723 130.658 Q 301.997 119.433 288.999 115.297 Q 276.002 111.162 247.643 111.162 Q 219.876 111.162 206.878 115.297 Q 193.88 119.433 189.154 130.658 Q 184.428 141.883 184.428 166.697 Q 184.428 190.92 189.449 202.44 Q 194.471 213.961 207.173 218.096 Q 219.876 222.232 247.643 222.232 Z M 247.643 399.472 Q 276.002 399.472 289.295 395.632 Q 302.588 391.792 308.496 379.976 Q 314.404 368.16 314.404 342.755 Q 314.404 316.169 308.791 304.058 Q 303.178 291.946 289.885 288.106 Q 276.592 284.266 247.643 284.266 Q 218.694 284.266 205.401 288.106 Q 192.108 291.946 186.791 304.058 Q 181.474 316.169 181.474 342.755 Q 181.474 368.16 187.086 379.976 Q 192.699 391.792 205.992 395.632 Q 219.285 399.472 247.643 399.472 Z" style="fill: rgb(51, 51, 51); white-space: pre;"/>
</svg>