<?xml version="1.0" encoding="utf-8"?>
<svg viewBox="0 0 500 500" xmlns="http://www.w3.org/2000/svg">
  <path d="M 240.491 456.67 Q 218.632 456.67 187.615 453.126 Q 156.598 449.581 131.784 444.264 L 131.784 384.002 Q 156.007 387.547 182.297 389.615 Q 208.588 391.682 225.721 391.682 Q 267.668 391.682 285.687 382.82 Q 303.707 373.958 309.319 349.736 Q 314.932 325.513 314.932 268.796 L 311.387 268.796 Q 290.118 297.154 226.312 297.154 Q 184.956 297.154 161.324 288.292 Q 137.692 279.43 125.581 254.026 Q 113.469 228.622 113.469 178.994 Q 113.469 124.05 124.104 95.101 Q 134.738 66.152 163.096 53.449 Q 191.455 40.747 247.581 40.747 Q 289.528 40.747 314.341 45.474 Q 339.155 50.2 354.811 64.379 Q 370.467 78.558 378.738 106.326 Q 385.828 128.776 388.487 162.157 Q 391.145 195.537 391.145 246.346 Q 391.145 299.518 387.305 334.375 Q 383.465 369.232 373.421 392.864 Q 359.242 428.312 328.225 442.491 Q 297.208 456.67 240.491 456.67 Z M 251.126 232.757 Q 279.484 232.757 292.482 228.031 Q 305.479 223.304 309.615 212.375 Q 313.75 201.445 313.75 177.813 Q 313.75 143.546 308.138 128.776 Q 302.525 114.006 290.414 109.871 Q 278.302 105.735 251.126 105.735 Q 222.176 105.735 209.77 109.28 Q 197.363 112.825 192.341 125.527 Q 187.319 138.229 187.319 167.769 Q 187.319 199.082 192.046 212.079 Q 196.772 225.077 209.474 228.917 Q 222.176 232.757 251.126 232.757 Z" style="fill: rgb(51, 51, 51); white-space: pre;"/>
</svg>