<?xml version="1.0" encoding="utf-8"?>
<svg viewBox="0 0 500 500" xmlns="http://www.w3.org/2000/svg">
  <path d="M 413.549 521.489 L 413.549 523.852 L 331.428 523.852 L 290.662 458.864 Q 272.348 460.636 248.125 460.636 Q 176.638 460.636 145.916 443.208 Q 115.195 425.779 107.219 385.605 Q 99.243 345.43 99.243 252.675 Q 99.243 159.919 107.219 119.745 Q 115.195 79.57 145.916 62.142 Q 176.638 44.713 248.125 44.713 Q 319.612 44.713 350.629 62.142 Q 381.646 79.57 389.621 119.745 Q 397.597 159.919 397.597 252.675 Q 397.597 311.164 395.234 344.544 Q 392.871 377.924 384.304 401.261 Q 375.738 424.598 358.014 437.595 Z M 251.079 395.648 L 207.95 327.116 L 284.754 327.116 L 314.294 372.016 Q 319.021 358.428 320.498 332.728 Q 321.975 307.028 321.975 252.675 Q 321.975 177.643 318.135 150.762 Q 314.294 123.88 300.411 116.791 Q 286.527 109.701 248.125 109.701 Q 209.723 109.701 196.134 116.791 Q 182.546 123.88 178.706 150.466 Q 174.866 177.052 174.866 252.675 Q 174.866 328.297 178.706 354.883 Q 182.546 381.469 196.134 388.559 Q 209.723 395.648 248.125 395.648 Z" style="fill: rgb(51, 51, 51); white-space: pre;"/>
</svg>