<?xml version="1.0" encoding="utf-8"?>
<svg viewBox="103.044 11.712 61.344 187.728"
  xmlns="http://www.w3.org/2000/svg">
  <path d="M 106.944 154.356 Q 106.194 154.356 106.194 153.606 L 106.194 136.656 Q 106.194 136.356 106.494 136.056 L 143.544 85.206 Q 144.594 83.856 145.269 81.681 Q 145.944 79.506 145.944 77.856 Q 145.944 73.506 142.794 69.831 Q 139.644 66.156 134.844 66.156 Q 130.194 66.156 126.969 69.681 Q 123.744 73.206 123.744 78.606 L 123.744 85.956 Q 123.744 86.706 122.994 86.706 L 106.194 86.706 Q 105.594 86.706 105.594 85.956 L 105.594 78.606 Q 105.594 70.206 109.719 63.306 Q 113.844 56.406 120.519 52.356 Q 127.194 48.306 134.844 48.306 Q 142.944 48.306 149.544 52.431 Q 156.144 56.556 160.119 63.306 Q 164.094 70.056 164.094 77.856 Q 164.094 82.806 162.369 87.906 Q 160.644 93.006 157.644 96.906 L 129.144 136.056 L 162.894 136.056 Q 163.494 136.056 163.494 136.656 L 163.494 153.606 Q 163.494 154.356 162.894 154.356 Z" />
</svg>