<?xml version="1.0" encoding="utf-8"?>
<svg viewBox="103.044 11.712 62.083 187.728" xmlns="http://www.w3.org/2000/svg">
  <path d="M 134.844 156.006 Q 126.894 156.006 120.219 151.881 Q 113.544 147.756 109.569 140.856 Q 105.594 133.956 105.594 125.706 L 105.594 118.956 Q 105.594 118.206 106.194 118.206 L 122.994 118.206 Q 123.744 118.206 123.744 118.956 L 123.744 125.706 Q 123.744 130.656 126.894 134.181 Q 130.044 137.706 134.844 137.706 Q 140.094 137.706 143.094 134.031 Q 146.094 130.356 146.094 125.706 L 146.094 121.656 Q 146.094 117.006 143.169 113.256 Q 140.244 109.506 135.744 109.506 L 129.894 109.506 Q 129.144 109.506 129.144 108.756 L 129.294 91.956 Q 129.294 91.356 129.894 91.356 L 135.744 91.356 Q 139.794 91.356 142.944 88.206 Q 146.094 85.056 146.094 79.956 L 146.094 77.856 Q 146.094 73.056 142.869 69.681 Q 139.644 66.306 134.844 66.306 Q 130.194 66.306 126.969 69.681 Q 123.744 73.056 123.744 77.856 L 123.744 85.056 Q 123.744 85.806 123.144 85.806 L 106.344 85.806 Q 105.744 85.806 105.744 85.056 L 105.744 77.106 Q 105.744 68.856 109.869 62.406 Q 113.994 55.956 120.669 52.131 Q 127.344 48.306 134.844 48.306 Q 142.944 48.306 149.619 52.281 Q 156.294 56.256 160.194 62.856 Q 164.094 69.456 164.094 77.406 L 164.094 79.806 Q 164.094 86.406 161.919 91.206 Q 159.744 96.006 155.844 100.356 Q 159.744 104.856 161.994 110.181 Q 164.244 115.506 164.244 121.206 L 164.244 125.706 Q 164.244 134.106 160.269 141.006 Q 156.294 147.906 149.619 151.956 Q 142.944 156.006 134.844 156.006 Z" style="fill: rgb(51, 51, 51); white-space: pre;"/>
</svg>