<?xml version="1.0" encoding="utf-8"?>
<svg viewBox="103.044 11.712 62.822 187.728" xmlns="http://www.w3.org/2000/svg">
  <path d="M 135.894 155.856 Q 127.944 155.856 121.194 151.806 Q 114.444 147.756 110.394 141.081 Q 106.344 134.406 106.344 126.606 L 106.344 122.106 Q 106.344 121.506 107.094 121.506 L 124.044 121.506 Q 124.644 121.506 124.644 122.106 L 124.644 125.556 Q 124.644 130.656 127.944 134.106 Q 131.244 137.556 135.894 137.556 Q 140.544 137.556 143.769 134.031 Q 146.994 130.506 146.994 125.556 L 146.994 115.356 Q 146.994 110.706 143.619 107.556 Q 140.244 104.406 135.294 104.406 Q 128.844 104.406 124.644 109.506 L 124.344 109.956 L 108.294 108.756 Q 107.544 108.756 107.544 108.006 L 109.344 66.906 L 110.244 50.556 Q 110.244 49.956 110.844 49.956 L 161.244 49.956 Q 161.844 49.956 161.844 50.556 L 161.844 66.906 Q 161.844 67.656 161.244 67.656 L 126.144 67.656 L 125.394 88.356 Q 127.194 87.456 130.119 86.856 Q 133.044 86.256 135.444 86.256 Q 143.544 86.256 150.369 90.231 Q 157.194 94.206 161.244 100.806 Q 165.294 107.406 165.294 115.356 L 165.294 125.556 Q 165.294 133.806 161.319 140.706 Q 157.344 147.606 150.669 151.731 Q 143.994 155.856 135.894 155.856 Z" style="fill: rgb(51, 51, 51); white-space: pre;"/>
</svg>