<?xml version="1.0" encoding="utf-8"?>
<svg viewBox="103.044 11.712 63.561 187.728" xmlns="http://www.w3.org/2000/svg">
  <path d="M 136.794 155.856 Q 128.844 155.856 122.169 151.731 Q 115.494 147.606 111.444 140.856 Q 107.394 134.106 107.394 126.006 L 107.244 78.606 Q 107.244 70.356 111.294 63.456 Q 115.344 56.556 122.094 52.431 Q 128.844 48.306 136.794 48.306 Q 144.894 48.306 151.569 52.431 Q 158.244 56.556 162.219 63.381 Q 166.194 70.206 166.194 78.606 L 166.194 81.606 Q 166.194 82.206 165.444 82.206 L 148.644 82.206 Q 148.044 82.206 148.044 81.606 L 148.044 78.606 Q 148.044 73.656 144.819 70.131 Q 141.594 66.606 136.794 66.606 Q 132.144 66.606 128.844 70.131 Q 125.544 73.656 125.544 78.606 L 125.544 88.956 Q 130.944 86.706 136.794 86.706 Q 144.894 86.706 151.569 90.756 Q 158.244 94.806 162.144 101.631 Q 166.044 108.456 166.044 116.706 L 166.044 126.006 Q 166.044 134.106 162.069 140.931 Q 158.094 147.756 151.494 151.806 Q 144.894 155.856 136.794 155.856 Z M 136.794 137.856 Q 141.444 137.856 144.669 134.406 Q 147.894 130.956 147.894 126.006 L 147.894 116.706 Q 147.894 111.906 144.669 108.381 Q 141.444 104.856 136.794 104.856 Q 132.144 104.856 128.844 108.306 Q 125.544 111.756 125.544 116.706 L 125.544 126.006 Q 125.544 130.806 128.844 134.331 Q 132.144 137.856 136.794 137.856 Z" style="fill: rgb(51, 51, 51); white-space: pre;"/>
</svg>