<?xml version="1.0" encoding="utf-8"?>
<svg viewBox="103.044 11.712 62.822 187.728" xmlns="http://www.w3.org/2000/svg">
  <path d="M 135.744 155.856 Q 127.794 155.856 121.119 151.731 Q 114.444 147.606 110.394 140.856 Q 106.344 134.106 106.344 126.006 L 106.344 116.706 Q 106.344 110.406 108.744 104.931 Q 111.144 99.456 115.194 95.256 Q 111.894 91.656 110.019 86.781 Q 108.144 81.906 108.144 76.356 Q 108.144 68.556 111.819 62.181 Q 115.494 55.806 121.794 52.056 Q 128.094 48.306 135.744 48.306 Q 143.394 48.306 149.619 52.131 Q 155.844 55.956 159.594 62.256 Q 163.344 68.556 163.344 76.356 Q 163.344 81.906 161.469 86.706 Q 159.594 91.506 156.294 95.256 Q 160.344 99.306 162.669 104.856 Q 164.994 110.406 164.994 116.706 L 164.994 126.006 Q 164.994 134.106 161.019 140.931 Q 157.044 147.756 150.444 151.806 Q 143.844 155.856 135.744 155.856 Z M 135.744 86.406 Q 139.644 86.406 142.419 83.481 Q 145.194 80.556 145.194 76.356 Q 145.194 72.156 142.419 69.156 Q 139.644 66.156 135.744 66.156 Q 131.844 66.156 128.994 69.156 Q 126.144 72.156 126.144 76.356 Q 126.144 80.406 128.994 83.406 Q 131.844 86.406 135.744 86.406 Z M 135.744 137.856 Q 140.394 137.856 143.619 134.406 Q 146.844 130.956 146.844 126.006 L 146.844 116.706 Q 146.844 111.906 143.619 108.381 Q 140.394 104.856 135.744 104.856 Q 131.094 104.856 127.794 108.306 Q 124.494 111.756 124.494 116.706 L 124.494 126.006 Q 124.494 130.806 127.794 134.331 Q 131.094 137.856 135.744 137.856 Z" style="fill: rgb(51, 51, 51); white-space: pre;"/>
</svg>