<?xml version="1.0" encoding="utf-8"?>
<svg viewBox="103.044 11.712 62.822 187.728" xmlns="http://www.w3.org/2000/svg">
  <path d="M 135.444 155.856 Q 127.494 155.856 120.744 151.731 Q 113.994 147.606 110.019 140.706 Q 106.044 133.806 106.044 125.556 L 106.044 122.556 Q 106.044 121.956 106.794 121.956 L 123.594 121.956 Q 124.194 121.956 124.194 122.556 L 124.194 125.556 Q 124.194 130.506 127.494 134.031 Q 130.794 137.556 135.444 137.556 Q 140.094 137.556 143.394 134.031 Q 146.694 130.506 146.694 125.556 L 146.694 115.206 Q 141.294 117.456 135.444 117.456 Q 127.344 117.456 120.744 113.406 Q 114.144 109.356 110.169 102.531 Q 106.194 95.706 106.194 87.456 L 106.194 78.156 Q 106.194 69.906 110.169 63.156 Q 114.144 56.406 120.819 52.356 Q 127.494 48.306 135.444 48.306 Q 143.394 48.306 150.069 52.356 Q 156.744 56.406 160.794 63.231 Q 164.844 70.056 164.844 78.156 L 164.844 87.456 L 164.994 125.556 Q 164.994 133.806 160.944 140.706 Q 156.894 147.606 150.219 151.731 Q 143.544 155.856 135.444 155.856 Z M 135.444 99.306 Q 140.244 99.306 143.469 95.856 Q 146.694 92.406 146.694 87.456 L 146.694 78.156 Q 146.694 73.356 143.394 69.831 Q 140.094 66.306 135.444 66.306 Q 130.794 66.306 127.569 69.756 Q 124.344 73.206 124.344 78.156 L 124.344 87.456 Q 124.344 92.256 127.569 95.781 Q 130.794 99.306 135.444 99.306 Z" style="fill: rgb(51, 51, 51); white-space: pre;"/>
</svg>