<?xml version="1.0" encoding="utf-8"?>
<svg viewBox="103.044 11.712 60.605 187.728" xmlns="http://www.w3.org/2000/svg">
  <path d="M 133.644 155.856 Q 125.244 155.856 118.569 151.881 Q 111.894 147.906 108.069 140.931 Q 104.244 133.956 104.244 125.256 L 104.244 118.356 Q 104.244 117.756 104.844 117.756 L 121.794 117.756 Q 122.394 117.756 122.394 118.506 L 122.394 125.256 Q 122.394 130.806 125.544 134.256 Q 128.694 137.706 133.644 137.706 Q 138.144 137.706 141.444 133.956 Q 144.744 130.206 144.744 125.256 L 144.744 50.706 Q 144.744 50.106 145.344 50.106 L 162.144 50.106 Q 162.744 50.106 162.744 50.856 L 162.894 125.256 Q 162.894 133.506 158.919 140.481 Q 154.944 147.456 148.344 151.656 Q 141.744 155.856 133.644 155.856 Z" style="fill: rgb(51, 51, 51); white-space: pre;"/>
</svg>