<?xml version="1.0" encoding="utf-8"?>
<svg viewBox="103.044 11.712 69.474 187.728" xmlns="http://www.w3.org/2000/svg">
  <path d="M 158.394 163.956 L 148.044 153.456 Q 142.644 155.856 136.794 155.856 Q 128.844 155.856 122.094 151.806 Q 115.344 147.756 111.294 140.856 Q 107.244 133.956 107.244 125.706 L 107.394 78.156 Q 107.394 70.206 111.294 63.381 Q 115.194 56.556 121.869 52.431 Q 128.544 48.306 136.794 48.306 Q 144.744 48.306 151.419 52.281 Q 158.094 56.256 162.069 63.006 Q 166.044 69.756 166.044 78.156 L 166.194 125.706 Q 166.194 130.056 164.994 134.106 Q 163.794 138.156 161.844 141.606 L 171.144 151.056 Q 171.744 151.656 171.294 152.106 L 159.444 163.956 Q 158.844 164.406 158.394 163.956 Z M 136.794 137.706 Q 141.894 137.706 144.969 133.881 Q 148.044 130.056 148.044 125.706 L 147.894 78.156 Q 147.894 73.356 144.744 69.831 Q 141.594 66.306 136.794 66.306 Q 131.694 66.306 128.619 69.906 Q 125.544 73.506 125.544 78.156 L 125.544 125.706 Q 125.544 131.106 129.069 134.406 Q 132.594 137.706 136.794 137.706 Z" style="fill: rgb(51, 51, 51); white-space: pre;"/>
</svg>