<?xml version="1.0" encoding="utf-8"?>
<svg viewBox="103.044 11.712 96.058 187.728" xmlns="http://www.w3.org/2000/svg">
  <path d="M 109.794 154.356 Q 109.044 154.356 109.044 153.606 L 109.194 50.556 Q 109.194 49.956 109.794 49.956 L 126.594 49.956 Q 127.194 49.956 127.194 50.556 L 127.344 153.606 Q 127.344 154.356 126.744 154.356 Z" style="fill: rgb(51, 51, 51); white-space: pre;"/>
  <path d="M 166.281 155.856 Q 156.681 155.856 149.331 151.731 Q 141.981 147.606 137.856 140.781 Q 133.731 133.956 133.731 125.706 L 133.881 78.156 Q 133.881 69.906 138.006 63.156 Q 142.131 56.406 149.481 52.356 Q 156.831 48.306 166.281 48.306 Q 175.881 48.306 183.081 52.356 Q 190.281 56.406 194.406 63.156 Q 198.531 69.906 198.531 78.156 L 198.681 125.706 Q 198.681 133.956 194.556 140.781 Q 190.431 147.606 183.156 151.731 Q 175.881 155.856 166.281 155.856 Z M 180.531 125.706 L 180.381 78.156 Q 180.381 72.906 176.481 69.606 Q 172.581 66.306 166.281 66.306 Q 159.831 66.306 155.931 69.606 Q 152.031 72.906 152.031 78.156 L 152.031 125.706 Q 152.031 131.256 155.931 134.481 Q 159.831 137.706 166.281 137.706 Q 172.581 137.706 176.556 134.481 Q 180.531 131.256 180.531 125.706 Z" style="fill: rgb(51, 51, 51); white-space: pre;"/>
</svg>