<?xml version="1.0" standalone="no"?>
<!DOCTYPE svg PUBLIC "-//W3C//DTD SVG 1.1//EN" "http://www.w3.org/Graphics/SVG/1.1/DTD/svg11.dtd" >
<svg xmlns="http://www.w3.org/2000/svg" xmlns:xlink="http://www.w3.org/1999/xlink" version="1.1" viewBox="-10 0 510 1000">
   <path fill="url(#Gradient2)"
d="M434 344q0 32 -12 61.5t-32 57.5t-45 54t-51 50q-13 12 -30 28.5t-32 34t-25.5 35.5t-10.5 33h266v102h-404q-3 -10 -2.5 -25t0.5 -21q0 -50 18.5 -92t47 -77.5t61 -66t61 -58.5t47 -54t18.5 -53q0 -38 -23 -58.5t-58 -20.5q-29 0 -61 14t-63 47l-61 -86q40 -42 92.5 -62
t104.5 -20q38 0 73 11t62 33t43 55.5t16 77.5z" />
</svg>
