<?xml version="1.0" standalone="no"?>
<!DOCTYPE svg PUBLIC "-//W3C//DTD SVG 1.1//EN" "http://www.w3.org/Graphics/SVG/1.1/DTD/svg11.dtd" >
<svg xmlns="http://www.w3.org/2000/svg" xmlns:xlink="http://www.w3.org/1999/xlink" version="1.1" viewBox="-10 0 510 1000">
   <path fill="currentColor"
d="M213 813q-23 0 -48.5 -3.5t-49 -8.5t-43.5 -11t-31 -11l24 -103q23 10 59.5 21t87.5 11q63 0 88.5 -27t25.5 -67q0 -49 -39 -68.5t-99 -19.5h-38v-102h46q19 0 38 -4t34 -13t24.5 -24t9.5 -38q0 -34 -20.5 -53.5t-56.5 -19.5q-35 0 -69.5 11.5t-59.5 28.5l-44 -90
q27 -18 71.5 -36.5t100.5 -18.5q52 0 90.5 13t63.5 36.5t37 55.5t12 69t-21 71t-56 52q48 20 74.5 59t26.5 93q0 43 -14 79t-43 62.5t-74 41t-107 14.5z" />
</svg>
