<?xml version="1.0" standalone="no"?>
<!DOCTYPE svg PUBLIC "-//W3C//DTD SVG 1.1//EN" "http://www.w3.org/Graphics/SVG/1.1/DTD/svg11.dtd" >
<svg xmlns="http://www.w3.org/2000/svg" xmlns:xlink="http://www.w3.org/1999/xlink" version="1.1" viewBox="-10 0 510 1000">
   <path fill="currentColor"
d="M321 618q0 -26 -8.5 -47.5t-34 -37t-72.5 -24t-123 -8.5q10 -84 16 -164.5t9 -155.5h316v102h-213q-2 32 -5 67t-5 57q124 8 185 60t61 146q0 43 -15 79.5t-46 63.5t-77 42t-107 15q-24 0 -49 -3t-48 -7.5t-41.5 -10.5t-28.5 -11l25 -102q22 11 56 20t85 9q36 0 59.5 -8
t37 -20.5t18.5 -28.5t5 -33z" />
</svg>
