<?xml version="1.0" standalone="no"?>
<!DOCTYPE svg PUBLIC "-//W3C//DTD SVG 1.1//EN" "http://www.w3.org/Graphics/SVG/1.1/DTD/svg11.dtd" >
<svg xmlns="http://www.w3.org/2000/svg" xmlns:xlink="http://www.w3.org/1999/xlink" version="1.1" viewBox="-10 0 510 1000">
   <path fill="currentColor"
d="M241 506q-19 0 -39 4t-33 11q-1 9 -1.5 18t-0.5 19q0 29 4 55.5t14 47.5t27.5 33.5t43.5 12.5q21 0 36 -10t24.5 -25t14 -33t4.5 -35q0 -47 -21 -72.5t-73 -25.5zM257 404q54 0 91.5 16t61.5 43t34.5 63t10.5 76q0 36 -11.5 73t-35.5 68t-61 50.5t-88 19.5
q-104 0 -158.5 -64.5t-54.5 -201.5q0 -90 26.5 -159t75.5 -116t118 -71t153 -24l7 105q-40 1 -78 8t-70 23.5t-55.5 42.5t-34.5 65q19 -8 37 -12.5t32 -4.5z" />
</svg>
