<?xml version="1.0" standalone="no"?>
<!DOCTYPE svg PUBLIC "-//W3C//DTD SVG 1.1//EN" "http://www.w3.org/Graphics/SVG/1.1/DTD/svg11.dtd" >
<svg xmlns="http://www.w3.org/2000/svg" xmlns:xlink="http://www.w3.org/1999/xlink" version="1.1" viewBox="-10 0 510 1000">
   <path fill="currentColor"
d="M446 328q0 43 -21 84.5t-66 69.5q57 33 80.5 72t23.5 86q0 30 -11.5 61t-37 55.5t-66.5 40.5t-101 16q-47 0 -85.5 -11.5t-66 -33t-42.5 -53t-15 -70.5q0 -47 22 -88.5t69 -73.5q-44 -30 -60 -64t-16 -72q0 -30 10.5 -62.5t33.5 -58.5t61 -43t94 -17q89 0 141.5 44
t52.5 118zM347 638q0 -20 -7.5 -35t-24 -27.5t-42.5 -25t-62 -26.5q-28 23 -43 51.5t-15 54.5q0 40 28.5 60.5t67.5 20.5q45 0 71.5 -21.5t26.5 -51.5zM250 268q-32 0 -56.5 18t-24.5 53t23 57t81 46q31 -23 44 -50.5t13 -53.5q0 -35 -23.5 -52.5t-56.5 -17.5z" />
</svg>
