<?xml version="1.0" standalone="no"?>
<!DOCTYPE svg PUBLIC "-//W3C//DTD SVG 1.1//EN" "http://www.w3.org/Graphics/SVG/1.1/DTD/svg11.dtd" >
<svg xmlns="http://www.w3.org/2000/svg" xmlns:xlink="http://www.w3.org/1999/xlink" version="1.1" viewBox="-10 0 510 1000">
   <path fill="currentColor"
d="M261 471q19 0 40 -4t34 -11q1 -8 1.5 -19.5t0.5 -22.5q0 -25 -4.5 -50.5t-15 -46.5t-28 -34t-43.5 -13q-22 0 -37.5 8.5t-25 22.5t-14 33t-4.5 40q0 47 22 72t74 25zM245 573q-54 0 -92 -15.5t-62 -42.5t-35 -62.5t-11 -76.5q0 -36 12.5 -73.5t37 -68t61.5 -50t87 -19.5
q104 0 159 70t55 195q0 90 -26 159.5t-74.5 116.5t-117 71.5t-152.5 24.5l-4 -106q80 -1 143 -34.5t89 -105.5q-39 17 -70 17z" />
</svg>
