<?xml version="1.0" standalone="no"?>
<!DOCTYPE svg PUBLIC "-//W3C//DTD SVG 1.1//EN" "http://www.w3.org/Graphics/SVG/1.1/DTD/svg11.dtd" >
<svg xmlns="http://www.w3.org/2000/svg" xmlns:xlink="http://www.w3.org/1999/xlink" version="1.1" viewBox="-10 0 510 1000">
   <path fill="currentColor"
d="M27 493q0 -160 59 -241.5t164 -81.5q109 0 166 81.5t57 241.5q0 140 -45 220.5t-130 97.5q11 25 53.5 41.5t116.5 29.5l-26 88q-117 -16 -176.5 -53.5t-70.5 -107.5q-81 -20 -124.5 -99.5t-43.5 -216.5zM152 493q0 45 3.5 84t14 68.5t29.5 46.5t51 17q31 0 50.5 -17
t30 -46.5t14 -68.5t3.5 -84t-3.5 -84.5t-14 -68.5t-29.5 -46t-51 -17t-51 17t-29.5 46.5t-14 68.5t-3.5 84z" />
</svg>
